<svg xmlns="http://www.w3.org/2000/svg" width="960" height="560" viewBox="0 0 960 560">
<rect width="100%" height="100%" fill="white"/>
<text x="480.0" y="28" text-anchor="middle" font-family="Arial" font-size="22" font-weight="bold">Speedup vs new/delete: immediate</text>
<line x1="90" y1="480" x2="930" y2="480" stroke="#333"/>
<line x1="90" y1="50" x2="90" y2="480" stroke="#333"/>
<line x1="90.0" y1="50" x2="90.0" y2="480" stroke="#ddd" stroke-dasharray="4 4"/>
<text x="90.0" y="504" text-anchor="middle" font-family="Arial" font-size="12">1</text>
<line x1="230.0" y1="50" x2="230.0" y2="480" stroke="#ddd" stroke-dasharray="4 4"/>
<text x="230.0" y="504" text-anchor="middle" font-family="Arial" font-size="12">10</text>
<line x1="370.0" y1="50" x2="370.0" y2="480" stroke="#ddd" stroke-dasharray="4 4"/>
<text x="370.0" y="504" text-anchor="middle" font-family="Arial" font-size="12">100</text>
<line x1="510.0" y1="50" x2="510.0" y2="480" stroke="#ddd" stroke-dasharray="4 4"/>
<text x="510.0" y="504" text-anchor="middle" font-family="Arial" font-size="12">1000</text>
<line x1="650.0" y1="50" x2="650.0" y2="480" stroke="#ddd" stroke-dasharray="4 4"/>
<text x="650.0" y="504" text-anchor="middle" font-family="Arial" font-size="12">10000</text>
<line x1="790.0" y1="50" x2="790.0" y2="480" stroke="#ddd" stroke-dasharray="4 4"/>
<text x="790.0" y="504" text-anchor="middle" font-family="Arial" font-size="12">100000</text>
<line x1="930.0" y1="50" x2="930.0" y2="480" stroke="#ddd" stroke-dasharray="4 4"/>
<text x="930.0" y="504" text-anchor="middle" font-family="Arial" font-size="12">1e+06</text>
<line x1="90" y1="469.5" x2="930" y2="469.5" stroke="#111" stroke-dasharray="5 5"/>
<text x="925" y="463.5" text-anchor="end" font-family="Arial" font-size="12">1.0x baseline</text>
<polyline points="90.0,50.0 230.0,469.5 370.0,469.5 510.0,469.3 650.0,469.2 790.0,472.3 930.0,469.2" fill="none" stroke="#2ecc71" stroke-width="3"/>
<circle cx="90.0" cy="50.0" r="4" fill="#2ecc71"/>
<circle cx="230.0" cy="469.5" r="4" fill="#2ecc71"/>
<circle cx="370.0" cy="469.5" r="4" fill="#2ecc71"/>
<circle cx="510.0" cy="469.3" r="4" fill="#2ecc71"/>
<circle cx="650.0" cy="469.2" r="4" fill="#2ecc71"/>
<circle cx="790.0" cy="472.3" r="4" fill="#2ecc71"/>
<circle cx="930.0" cy="469.2" r="4" fill="#2ecc71"/>
<polyline points="90.0,50.0 230.0,469.5 370.0,469.5 510.0,470.1 650.0,469.6 790.0,471.9 930.0,467.7" fill="none" stroke="#3498db" stroke-width="3"/>
<circle cx="90.0" cy="50.0" r="4" fill="#3498db"/>
<circle cx="230.0" cy="469.5" r="4" fill="#3498db"/>
<circle cx="370.0" cy="469.5" r="4" fill="#3498db"/>
<circle cx="510.0" cy="470.1" r="4" fill="#3498db"/>
<circle cx="650.0" cy="469.6" r="4" fill="#3498db"/>
<circle cx="790.0" cy="471.9" r="4" fill="#3498db"/>
<circle cx="930.0" cy="467.7" r="4" fill="#3498db"/>
<rect x="110" y="55" width="14" height="14" fill="#2ecc71"/>
<text x="132" y="67" font-family="Arial" font-size="14">object_pool</text>
<rect x="110" y="79" width="14" height="14" fill="#3498db"/>
<text x="132" y="91" font-family="Arial" font-size="14">std_allocator</text>
<text x="480.0" y="540" text-anchor="middle" font-family="Arial" font-size="14">operations, log scale</text>
<text x="22" y="280.0" transform="rotate(-90 22 280.0)" text-anchor="middle" font-family="Arial" font-size="14">speedup</text>
</svg>